# xmcd
#
# Track frame offsets:
#	150
#	15390
#	33707
#	54907
#	76807
#	95904
#	108475
#	122735
#	137047
#	156167
#
# Disc length: 2388 seconds
#
# Revision: 1
# Processed by: cddbd v1.5.2PL0 Copyright (c) Steve Scherf et al.
# Submitted via: audiograbber 1.83.01
#
DISCID=7c09520a
DTITLE=Dutch And The Little Uglies - Snug
DYEAR=2002
DGENRE=alt. Country
TTITLE0=More Like My Life
TTITLE1=Mercedes'
TTITLE2=Hallelujah World
TTITLE3=Girls, Guitars And Gin
TTITLE4=Stand Up Stephanie
TTITLE5=Always Something
TTITLE6=Lover
TTITLE7=Saturday's Kickin' In
TTITLE8='Til I Found You
TTITLE9=Contessa
EXTD=
EXTT0=
EXTT1=
EXTT2=
EXTT3=
EXTT4=
EXTT5=
EXTT6=
EXTT7=
EXTT8=
EXTT9=
PLAYORDER=
